<?xml version="1.0" encoding="UTF-8"?>
<svg xmlns="http://www.w3.org/2000/svg" version="1.1" width="300" height="300" viewBox="0 0 300 300"><rect x="0" y="0" width="300" height="300" fill="#ffffff"/><g transform="scale(5.66)"><g transform="translate(0,0)"><path fill-rule="evenodd" d="M11 0L11 1L10 1L10 2L11 2L11 3L10 3L10 4L9 4L9 3L8 3L8 4L9 4L9 5L8 5L8 7L9 7L9 5L13 5L13 6L12 6L12 9L10 9L10 10L11 10L11 11L12 11L12 13L10 13L10 12L9 12L9 14L8 14L8 12L6 12L6 13L7 13L7 14L6 14L6 15L5 15L5 12L4 12L4 9L5 9L5 11L7 11L7 10L8 10L8 11L9 11L9 10L8 10L8 9L9 9L9 8L6 8L6 9L5 9L5 8L0 8L0 9L1 9L1 12L2 12L2 13L0 13L0 16L2 16L2 18L1 18L1 19L0 19L0 21L2 21L2 20L1 20L1 19L3 19L3 21L4 21L4 23L2 23L2 22L1 22L1 23L0 23L0 24L3 24L3 25L1 25L1 27L0 27L0 33L1 33L1 34L0 34L0 35L1 35L1 36L0 36L0 39L1 39L1 40L0 40L0 41L2 41L2 42L0 42L0 43L1 43L1 44L3 44L3 45L4 45L4 44L3 44L3 43L7 43L7 44L6 44L6 45L7 45L7 44L8 44L8 47L10 47L10 50L9 50L9 48L8 48L8 53L10 53L10 52L14 52L14 53L19 53L19 52L21 52L21 51L22 51L22 52L23 52L23 53L26 53L26 52L27 52L27 53L28 53L28 51L26 51L26 49L27 49L27 50L28 50L28 49L29 49L29 50L30 50L30 51L29 51L29 53L31 53L31 52L33 52L33 53L37 53L37 52L34 52L34 50L32 50L32 51L31 51L31 49L32 49L32 48L31 48L31 49L29 49L29 46L31 46L31 45L30 45L30 42L32 42L32 39L31 39L31 40L30 40L30 42L29 42L29 41L28 41L28 42L27 42L27 41L26 41L26 39L27 39L27 40L28 40L28 38L31 38L31 37L30 37L30 36L33 36L33 37L32 37L32 38L33 38L33 40L34 40L34 41L35 41L35 40L36 40L36 41L37 41L37 40L38 40L38 33L37 33L37 32L36 32L36 31L37 31L37 30L38 30L38 29L39 29L39 30L40 30L40 32L39 32L39 31L38 31L38 32L39 32L39 36L40 36L40 32L41 32L41 30L40 30L40 28L41 28L41 29L42 29L42 32L44 32L44 34L43 34L43 33L41 33L41 34L42 34L42 35L43 35L43 36L44 36L44 35L45 35L45 32L44 32L44 31L45 31L45 30L47 30L47 32L46 32L46 33L47 33L47 35L46 35L46 36L45 36L45 37L41 37L41 38L39 38L39 39L40 39L40 40L39 40L39 42L37 42L37 44L35 44L35 43L34 43L34 42L33 42L33 43L31 43L31 44L35 44L35 45L36 45L36 46L34 46L34 45L32 45L32 46L34 46L34 47L33 47L33 48L34 48L34 49L35 49L35 48L36 48L36 50L35 50L35 51L38 51L38 53L39 53L39 52L40 52L40 51L41 51L41 53L44 53L44 52L42 52L42 50L43 50L43 51L44 51L44 50L47 50L47 51L49 51L49 52L48 52L48 53L49 53L49 52L50 52L50 51L51 51L51 52L52 52L52 51L53 51L53 50L52 50L52 49L51 49L51 50L49 50L49 49L50 49L50 46L49 46L49 44L50 44L50 43L51 43L51 42L52 42L52 41L50 41L50 42L49 42L49 40L50 40L50 39L51 39L51 40L53 40L53 39L52 39L52 36L53 36L53 35L51 35L51 36L49 36L49 35L50 35L50 33L49 33L49 32L50 32L50 31L52 31L52 29L51 29L51 30L50 30L50 29L49 29L49 28L50 28L50 27L49 27L49 26L52 26L52 25L53 25L53 23L51 23L51 21L50 21L50 23L49 23L49 22L48 22L48 24L46 24L46 23L47 23L47 22L46 22L46 20L43 20L43 21L42 21L42 19L45 19L45 18L43 18L43 16L42 16L42 15L43 15L43 14L44 14L44 17L45 17L45 14L44 14L44 13L43 13L43 12L45 12L45 11L46 11L46 10L44 10L44 11L43 11L43 9L46 9L46 8L43 8L43 3L44 3L44 4L45 4L45 3L44 3L44 1L43 1L43 0L41 0L41 2L43 2L43 3L41 3L41 4L39 4L39 5L40 5L40 8L38 8L38 7L39 7L39 6L38 6L38 7L37 7L37 5L38 5L38 4L37 4L37 3L38 3L38 2L40 2L40 0L39 0L39 1L36 1L36 0L35 0L35 1L36 1L36 2L37 2L37 3L35 3L35 2L33 2L33 1L32 1L32 0L28 0L28 1L27 1L27 3L25 3L25 1L26 1L26 0L24 0L24 1L21 1L21 0L18 0L18 1L17 1L17 3L16 3L16 2L15 2L15 1L16 1L16 0L15 0L15 1L14 1L14 0L13 0L13 1L12 1L12 0ZM8 1L8 2L9 2L9 1ZM13 1L13 2L12 2L12 4L13 4L13 5L14 5L14 4L15 4L15 5L17 5L17 7L18 7L18 5L19 5L19 7L20 7L20 9L19 9L19 10L20 10L20 11L19 11L19 12L20 12L20 16L19 16L19 13L18 13L18 15L17 15L17 13L15 13L15 12L16 12L16 11L15 11L15 10L16 10L16 9L18 9L18 8L16 8L16 6L15 6L15 8L16 8L16 9L13 9L13 12L14 12L14 13L12 13L12 15L11 15L11 14L10 14L10 15L11 15L11 16L10 16L10 17L11 17L11 16L12 16L12 18L13 18L13 17L14 17L14 19L13 19L13 20L14 20L14 21L12 21L12 19L10 19L10 20L7 20L7 19L9 19L9 16L7 16L7 15L8 15L8 14L7 14L7 15L6 15L6 16L3 16L3 19L5 19L5 20L4 20L4 21L5 21L5 23L4 23L4 24L9 24L9 25L10 25L10 26L9 26L9 28L12 28L12 27L13 27L13 28L14 28L14 29L15 29L15 30L12 30L12 31L10 31L10 32L9 32L9 30L10 30L10 29L8 29L8 30L7 30L7 29L6 29L6 30L3 30L3 33L4 33L4 34L3 34L3 35L5 35L5 36L8 36L8 38L7 38L7 37L6 37L6 38L5 38L5 37L4 37L4 38L5 38L5 39L3 39L3 38L2 38L2 41L3 41L3 42L2 42L2 43L3 43L3 42L4 42L4 41L3 41L3 40L5 40L5 39L6 39L6 40L7 40L7 41L6 41L6 42L8 42L8 43L9 43L9 44L10 44L10 42L9 42L9 41L8 41L8 39L9 39L9 37L11 37L11 36L14 36L14 37L15 37L15 38L16 38L16 39L18 39L18 38L19 38L19 37L18 37L18 36L17 36L17 34L18 34L18 35L20 35L20 34L18 34L18 33L21 33L21 35L22 35L22 34L23 34L23 35L24 35L24 36L25 36L25 35L27 35L27 36L26 36L26 37L25 37L25 39L24 39L24 37L23 37L23 36L22 36L22 37L21 37L21 36L20 36L20 39L19 39L19 40L20 40L20 41L19 41L19 42L17 42L17 45L15 45L15 44L16 44L16 43L15 43L15 42L16 42L16 41L18 41L18 40L16 40L16 41L12 41L12 40L14 40L14 39L12 39L12 38L10 38L10 40L11 40L11 43L12 43L12 42L13 42L13 44L12 44L12 45L11 45L11 46L10 46L10 45L9 45L9 46L10 46L10 47L11 47L11 49L12 49L12 50L10 50L10 51L9 51L9 52L10 52L10 51L13 51L13 49L14 49L14 51L16 51L16 52L19 52L19 51L20 51L20 50L18 50L18 49L21 49L21 50L22 50L22 51L23 51L23 52L25 52L25 51L24 51L24 50L25 50L25 49L24 49L24 48L23 48L23 47L24 47L24 43L26 43L26 44L29 44L29 43L27 43L27 42L26 42L26 41L24 41L24 40L25 40L25 39L26 39L26 38L27 38L27 36L28 36L28 37L29 37L29 36L30 36L30 35L33 35L33 36L34 36L34 34L35 34L35 35L36 35L36 36L37 36L37 35L36 35L36 34L37 34L37 33L36 33L36 32L35 32L35 33L34 33L34 34L32 34L32 33L33 33L33 32L34 32L34 31L33 31L33 30L35 30L35 31L36 31L36 30L37 30L37 29L38 29L38 28L37 28L37 27L36 27L36 26L39 26L39 24L40 24L40 25L43 25L43 24L44 24L44 23L46 23L46 22L45 22L45 21L43 21L43 23L42 23L42 21L41 21L41 19L42 19L42 17L41 17L41 16L40 16L40 18L39 18L39 16L38 16L38 17L36 17L36 16L37 16L37 15L36 15L36 16L34 16L34 15L33 15L33 14L37 14L37 13L35 13L35 12L37 12L37 11L38 11L38 15L39 15L39 14L41 14L41 15L42 15L42 14L41 14L41 11L42 11L42 4L41 4L41 8L40 8L40 9L38 9L38 8L37 8L37 7L36 7L36 5L37 5L37 4L35 4L35 3L34 3L34 4L33 4L33 3L32 3L32 2L31 2L31 1L30 1L30 2L29 2L29 1L28 1L28 2L29 2L29 3L27 3L27 4L29 4L29 3L30 3L30 2L31 2L31 3L32 3L32 5L35 5L35 7L36 7L36 8L35 8L35 9L34 9L34 11L35 11L35 12L32 12L32 11L33 11L33 8L31 8L31 10L30 10L30 11L29 11L29 9L28 9L28 10L27 10L27 11L26 11L26 12L25 12L25 11L24 11L24 10L26 10L26 9L22 9L22 8L21 8L21 7L22 7L22 5L23 5L23 7L24 7L24 4L25 4L25 3L24 3L24 2L23 2L23 3L22 3L22 2L21 2L21 3L22 3L22 5L21 5L21 4L18 4L18 5L17 5L17 4L15 4L15 2L14 2L14 1ZM18 1L18 2L20 2L20 1ZM13 2L13 3L14 3L14 2ZM23 3L23 4L24 4L24 3ZM25 5L25 8L28 8L28 5ZM29 5L29 7L30 7L30 6L31 6L31 7L32 7L32 6L31 6L31 5ZM10 6L10 7L11 7L11 6ZM13 6L13 8L14 8L14 6ZM20 6L20 7L21 7L21 6ZM26 6L26 7L27 7L27 6ZM33 6L33 7L34 7L34 6ZM44 6L44 7L45 7L45 6ZM36 8L36 9L35 9L35 10L36 10L36 11L37 11L37 10L36 10L36 9L37 9L37 8ZM47 8L47 9L48 9L48 8ZM49 8L49 9L50 9L50 10L47 10L47 11L48 11L48 12L47 12L47 14L48 14L48 15L47 15L47 17L49 17L49 18L50 18L50 17L51 17L51 18L52 18L52 17L51 17L51 16L52 16L52 15L51 15L51 14L52 14L52 13L53 13L53 12L51 12L51 13L50 13L50 10L52 10L52 8L51 8L51 9L50 9L50 8ZM6 9L6 10L7 10L7 9ZM21 9L21 10L22 10L22 11L23 11L23 12L24 12L24 11L23 11L23 10L22 10L22 9ZM31 10L31 11L32 11L32 10ZM38 10L38 11L39 11L39 12L40 12L40 11L41 11L41 10L40 10L40 11L39 11L39 10ZM2 11L2 12L3 12L3 13L2 13L2 14L1 14L1 15L2 15L2 14L3 14L3 15L4 15L4 14L3 14L3 13L4 13L4 12L3 12L3 11ZM27 11L27 12L26 12L26 15L24 15L24 13L23 13L23 15L24 15L24 16L23 16L23 17L24 17L24 16L25 16L25 17L26 17L26 15L27 15L27 12L28 12L28 14L31 14L31 15L29 15L29 16L30 16L30 17L29 17L29 18L31 18L31 19L32 19L32 20L30 20L30 19L29 19L29 20L30 20L30 22L31 22L31 21L32 21L32 20L33 20L33 19L34 19L34 20L35 20L35 22L33 22L33 25L32 25L32 24L31 24L31 23L27 23L27 22L26 22L26 21L27 21L27 20L26 20L26 19L27 19L27 18L28 18L28 17L27 17L27 18L26 18L26 19L25 19L25 18L24 18L24 20L26 20L26 21L25 21L25 22L26 22L26 23L24 23L24 22L22 22L22 21L21 21L21 22L20 22L20 21L19 21L19 20L23 20L23 18L21 18L21 17L22 17L22 16L21 16L21 17L18 17L18 16L17 16L17 17L18 17L18 18L17 18L17 19L18 19L18 20L16 20L16 19L15 19L15 21L14 21L14 22L12 22L12 21L11 21L11 22L12 22L12 23L11 23L11 24L10 24L10 21L7 21L7 20L6 20L6 21L7 21L7 22L6 22L6 23L9 23L9 24L10 24L10 25L11 25L11 26L10 26L10 27L11 27L11 26L13 26L13 25L16 25L16 26L14 26L14 27L16 27L16 28L15 28L15 29L17 29L17 27L20 27L20 26L19 26L19 25L20 25L20 24L19 24L19 23L21 23L21 24L22 24L22 25L21 25L21 26L22 26L22 25L24 25L24 27L21 27L21 28L24 28L24 30L25 30L25 29L27 29L27 30L26 30L26 31L28 31L28 29L29 29L29 30L31 30L31 29L32 29L32 30L33 30L33 29L32 29L32 28L31 28L31 29L29 29L29 28L30 28L30 27L29 27L29 24L31 24L31 25L30 25L30 26L33 26L33 28L34 28L34 26L33 26L33 25L35 25L35 26L36 26L36 25L37 25L37 24L36 24L36 23L37 23L37 22L38 22L38 21L39 21L39 20L40 20L40 19L39 19L39 18L37 18L37 19L39 19L39 20L38 20L38 21L37 21L37 20L36 20L36 19L34 19L34 17L33 17L33 19L32 19L32 14L33 14L33 13L32 13L32 12L29 12L29 11ZM21 12L21 15L22 15L22 12ZM48 13L48 14L49 14L49 16L51 16L51 15L50 15L50 14L49 14L49 13ZM13 15L13 16L14 16L14 15ZM15 15L15 16L16 16L16 15ZM6 16L6 17L5 17L5 19L7 19L7 18L8 18L8 17L7 17L7 16ZM6 17L6 18L7 18L7 17ZM15 17L15 18L16 18L16 17ZM19 18L19 19L20 19L20 18ZM47 19L47 21L49 21L49 20L50 20L50 19ZM52 19L52 20L53 20L53 19ZM15 21L15 24L16 24L16 25L18 25L18 24L16 24L16 23L18 23L18 22L19 22L19 21ZM28 21L28 22L29 22L29 21ZM40 21L40 22L39 22L39 23L40 23L40 24L41 24L41 21ZM21 22L21 23L22 23L22 22ZM13 23L13 24L14 24L14 23ZM23 23L23 24L24 24L24 23ZM26 23L26 24L27 24L27 23ZM50 23L50 25L51 25L51 23ZM11 24L11 25L12 25L12 24ZM35 24L35 25L36 25L36 24ZM3 25L3 26L2 26L2 28L3 28L3 29L4 29L4 28L3 28L3 26L4 26L4 25ZM5 25L5 28L8 28L8 25ZM25 25L25 28L28 28L28 25ZM45 25L45 28L48 28L48 25ZM6 26L6 27L7 27L7 26ZM26 26L26 27L27 27L27 26ZM40 26L40 27L39 27L39 28L40 28L40 27L41 27L41 26ZM43 26L43 27L42 27L42 28L43 28L43 29L44 29L44 30L45 30L45 29L44 29L44 26ZM46 26L46 27L47 27L47 26ZM35 27L35 29L37 29L37 28L36 28L36 27ZM18 28L18 29L19 29L19 30L20 30L20 31L22 31L22 29L21 29L21 30L20 30L20 28ZM1 29L1 31L2 31L2 29ZM47 29L47 30L48 30L48 29ZM6 30L6 31L5 31L5 32L6 32L6 33L5 33L5 35L7 35L7 34L6 34L6 33L8 33L8 36L9 36L9 35L10 35L10 36L11 36L11 35L13 35L13 34L14 34L14 33L12 33L12 32L14 32L14 31L12 31L12 32L10 32L10 33L11 33L11 34L9 34L9 32L8 32L8 31L7 31L7 30ZM17 30L17 31L15 31L15 32L17 32L17 33L18 33L18 32L17 32L17 31L18 31L18 30ZM49 30L49 31L48 31L48 32L49 32L49 31L50 31L50 30ZM6 31L6 32L7 32L7 31ZM29 31L29 32L27 32L27 33L26 33L26 32L23 32L23 34L24 34L24 35L25 35L25 34L24 34L24 33L26 33L26 34L28 34L28 35L30 35L30 34L31 34L31 33L32 33L32 31L31 31L31 32L30 32L30 31ZM1 32L1 33L2 33L2 32ZM21 32L21 33L22 33L22 32ZM52 32L52 33L51 33L51 34L52 34L52 33L53 33L53 32ZM15 33L15 34L16 34L16 33ZM29 33L29 34L30 34L30 33ZM35 33L35 34L36 34L36 33ZM1 34L1 35L2 35L2 34ZM14 35L14 36L15 36L15 37L17 37L17 38L18 38L18 37L17 37L17 36L16 36L16 35ZM47 35L47 36L46 36L46 37L45 37L45 38L44 38L44 40L43 40L43 41L45 41L45 42L43 42L43 45L44 45L44 43L45 43L45 44L46 44L46 43L47 43L47 44L49 44L49 43L48 43L48 42L47 42L47 41L48 41L48 40L47 40L47 39L48 39L48 35ZM1 36L1 37L2 37L2 36ZM22 37L22 39L21 39L21 40L22 40L22 41L21 41L21 43L22 43L22 44L23 44L23 42L24 42L24 41L23 41L23 37ZM33 37L33 38L35 38L35 39L36 39L36 40L37 40L37 38L36 38L36 37ZM46 37L46 38L47 38L47 37ZM49 37L49 38L51 38L51 37ZM6 38L6 39L7 39L7 38ZM41 38L41 39L42 39L42 38ZM45 39L45 40L46 40L46 39ZM40 40L40 41L41 41L41 40ZM22 41L22 42L23 42L23 41ZM19 42L19 43L18 43L18 45L17 45L17 46L15 46L15 48L14 48L14 49L15 49L15 50L16 50L16 49L15 49L15 48L16 48L16 47L18 47L18 45L19 45L19 46L20 46L20 45L19 45L19 43L20 43L20 42ZM40 42L40 44L39 44L39 43L38 43L38 44L37 44L37 46L40 46L40 47L36 47L36 48L37 48L37 50L39 50L39 48L40 48L40 49L41 49L41 50L42 50L42 49L43 49L43 50L44 50L44 49L43 49L43 48L40 48L40 47L42 47L42 46L41 46L41 42ZM13 44L13 45L12 45L12 46L11 46L11 47L12 47L12 46L13 46L13 47L14 47L14 44ZM21 45L21 47L20 47L20 48L21 48L21 49L22 49L22 48L21 48L21 47L22 47L22 45ZM25 45L25 48L28 48L28 45ZM45 45L45 48L48 48L48 45ZM52 45L52 46L53 46L53 45ZM26 46L26 47L27 47L27 46ZM46 46L46 47L47 47L47 46ZM34 47L34 48L35 48L35 47ZM17 48L17 49L18 49L18 48ZM47 49L47 50L48 50L48 49ZM51 50L51 51L52 51L52 50ZM30 51L30 52L31 52L31 51ZM45 52L45 53L46 53L46 52ZM0 0L0 7L7 7L7 0ZM1 1L1 6L6 6L6 1ZM2 2L2 5L5 5L5 2ZM46 0L46 7L53 7L53 0ZM47 1L47 6L52 6L52 1ZM48 2L48 5L51 5L51 2ZM0 46L0 53L7 53L7 46ZM1 47L1 52L6 52L6 47ZM2 48L2 51L5 51L5 48Z" fill="#000000"/></g></g></svg>
