<?xml version="1.0" encoding="UTF-8"?>
<svg xmlns="http://www.w3.org/2000/svg" version="1.1" width="300" height="300" viewBox="0 0 300 300"><rect x="0" y="0" width="300" height="300" fill="#ffffff"/><g transform="scale(5.66)"><g transform="translate(0,0)"><path fill-rule="evenodd" d="M9 0L9 1L10 1L10 0ZM11 0L11 2L10 2L10 4L9 4L9 6L8 6L8 8L4 8L4 9L3 9L3 8L0 8L0 12L3 12L3 16L4 16L4 17L1 17L1 18L0 18L0 19L2 19L2 18L4 18L4 20L0 20L0 21L1 21L1 22L0 22L0 23L1 23L1 22L2 22L2 21L4 21L4 25L3 25L3 23L2 23L2 24L1 24L1 27L2 27L2 25L3 25L3 28L1 28L1 29L2 29L2 30L1 30L1 32L0 32L0 33L1 33L1 34L3 34L3 33L4 33L4 32L5 32L5 30L6 30L6 31L7 31L7 32L6 32L6 33L5 33L5 35L0 35L0 37L1 37L1 36L5 36L5 38L4 38L4 37L2 37L2 38L4 38L4 39L3 39L3 40L2 40L2 39L1 39L1 38L0 38L0 39L1 39L1 40L0 40L0 41L2 41L2 42L0 42L0 43L1 43L1 44L3 44L3 45L4 45L4 44L3 44L3 43L7 43L7 44L6 44L6 45L7 45L7 44L8 44L8 49L9 49L9 50L8 50L8 53L9 53L9 52L11 52L11 53L12 53L12 51L13 51L13 52L15 52L15 53L16 53L16 51L17 51L17 52L18 52L18 53L19 53L19 52L18 52L18 51L17 51L17 50L18 50L18 48L20 48L20 50L21 50L21 48L20 48L20 46L19 46L19 44L20 44L20 45L21 45L21 44L22 44L22 47L23 47L23 46L24 46L24 51L22 51L22 52L21 52L21 51L20 51L20 53L33 53L33 51L31 51L31 50L32 50L32 49L34 49L34 47L33 47L33 48L32 48L32 47L29 47L29 44L27 44L27 41L28 41L28 42L29 42L29 43L30 43L30 44L31 44L31 43L30 43L30 41L34 41L34 40L35 40L35 39L33 39L33 37L35 37L35 38L37 38L37 36L38 36L38 35L39 35L39 37L41 37L41 38L42 38L42 39L44 39L44 40L45 40L45 41L43 41L43 40L41 40L41 39L40 39L40 38L38 38L38 39L40 39L40 41L39 41L39 40L38 40L38 41L37 41L37 39L36 39L36 41L35 41L35 42L34 42L34 43L33 43L33 42L32 42L32 45L35 45L35 47L36 47L36 49L35 49L35 50L34 50L34 52L35 52L35 53L41 53L41 52L43 52L43 53L44 53L44 52L43 52L43 51L47 51L47 52L46 52L46 53L47 53L47 52L48 52L48 53L50 53L50 51L51 51L51 53L53 53L53 52L52 52L52 49L53 49L53 42L52 42L52 41L53 41L53 40L50 40L50 43L52 43L52 44L50 44L50 45L49 45L49 43L48 43L48 42L46 42L46 41L47 41L47 40L46 40L46 39L47 39L47 38L48 38L48 39L50 39L50 37L51 37L51 36L52 36L52 38L51 38L51 39L53 39L53 34L52 34L52 33L53 33L53 28L49 28L49 27L53 27L53 26L52 26L52 25L53 25L53 22L52 22L52 21L53 21L53 18L52 18L52 16L51 16L51 18L50 18L50 19L52 19L52 20L50 20L50 21L49 21L49 20L48 20L48 19L47 19L47 18L49 18L49 17L50 17L50 15L49 15L49 14L48 14L48 15L49 15L49 16L45 16L45 15L47 15L47 14L44 14L44 12L46 12L46 11L49 11L49 10L51 10L51 11L53 11L53 10L52 10L52 9L51 9L51 8L50 8L50 9L47 9L47 8L45 8L45 6L44 6L44 7L43 7L43 3L44 3L44 4L45 4L45 3L44 3L44 1L43 1L43 0L42 0L42 1L41 1L41 0L40 0L40 1L39 1L39 0L38 0L38 2L40 2L40 3L41 3L41 5L40 5L40 4L35 4L35 3L36 3L36 1L37 1L37 0L36 0L36 1L35 1L35 0L29 0L29 1L30 1L30 2L29 2L29 3L30 3L30 4L26 4L26 3L27 3L27 2L28 2L28 0L24 0L24 1L23 1L23 0L22 0L22 1L20 1L20 0L18 0L18 1L19 1L19 2L18 2L18 3L17 3L17 2L16 2L16 3L15 3L15 5L14 5L14 7L13 7L13 6L12 6L12 7L11 7L11 6L10 6L10 5L11 5L11 4L12 4L12 5L13 5L13 4L12 4L12 2L13 2L13 1L14 1L14 2L15 2L15 0ZM16 0L16 1L17 1L17 0ZM25 1L25 2L22 2L22 5L19 5L19 4L21 4L21 2L20 2L20 3L18 3L18 6L17 6L17 5L15 5L15 7L16 7L16 8L14 8L14 10L13 10L13 8L12 8L12 9L11 9L11 7L10 7L10 6L9 6L9 10L12 10L12 11L13 11L13 13L12 13L12 16L10 16L10 14L11 14L11 12L10 12L10 11L9 11L9 12L8 12L8 11L6 11L6 10L7 10L7 9L6 9L6 10L5 10L5 9L4 9L4 11L3 11L3 12L4 12L4 14L9 14L9 15L8 15L8 17L4 17L4 18L5 18L5 20L8 20L8 21L9 21L9 23L8 23L8 22L7 22L7 21L5 21L5 22L7 22L7 23L5 23L5 24L9 24L9 23L11 23L11 24L10 24L10 27L9 27L9 28L10 28L10 27L11 27L11 29L10 29L10 30L11 30L11 31L12 31L12 30L13 30L13 32L9 32L9 31L8 31L8 30L9 30L9 29L8 29L8 30L7 30L7 29L6 29L6 30L7 30L7 31L8 31L8 32L7 32L7 33L6 33L6 34L7 34L7 35L5 35L5 36L7 36L7 35L8 35L8 36L9 36L9 40L8 40L8 39L5 39L5 40L4 40L4 41L3 41L3 42L2 42L2 43L3 43L3 42L4 42L4 41L5 41L5 42L7 42L7 43L8 43L8 42L7 42L7 41L10 41L10 43L9 43L9 45L10 45L10 46L9 46L9 48L10 48L10 47L11 47L11 48L12 48L12 50L15 50L15 49L14 49L14 48L12 48L12 47L13 47L13 46L14 46L14 47L17 47L17 46L18 46L18 47L19 47L19 46L18 46L18 44L19 44L19 41L18 41L18 40L19 40L19 39L20 39L20 38L21 38L21 37L20 37L20 35L21 35L21 34L23 34L23 35L24 35L24 36L23 36L23 37L22 37L22 39L24 39L24 40L22 40L22 43L25 43L25 42L24 42L24 40L25 40L25 39L26 39L26 40L28 40L28 41L30 41L30 40L29 40L29 39L31 39L31 40L33 40L33 39L32 39L32 38L31 38L31 37L32 37L32 34L31 34L31 33L30 33L30 35L29 35L29 32L30 32L30 31L31 31L31 32L33 32L33 33L34 33L34 35L33 35L33 36L34 36L34 35L35 35L35 34L39 34L39 35L40 35L40 36L42 36L42 38L44 38L44 39L45 39L45 38L46 38L46 36L47 36L47 37L48 37L48 38L49 38L49 37L50 37L50 36L51 36L51 35L50 35L50 34L51 34L51 33L50 33L50 32L51 32L51 31L52 31L52 29L48 29L48 30L49 30L49 33L48 33L48 31L45 31L45 32L47 32L47 33L45 33L45 34L43 34L43 33L44 33L44 31L42 31L42 30L45 30L45 29L44 29L44 28L43 28L43 27L44 27L44 25L43 25L43 24L45 24L45 23L46 23L46 24L47 24L47 23L48 23L48 24L51 24L51 25L52 25L52 24L51 24L51 23L52 23L52 22L49 22L49 21L48 21L48 22L47 22L47 19L46 19L46 21L45 21L45 18L47 18L47 17L45 17L45 16L44 16L44 15L43 15L43 17L42 17L42 18L41 18L41 17L40 17L40 16L39 16L39 17L38 17L38 19L37 19L37 18L35 18L35 17L36 17L36 14L35 14L35 12L36 12L36 10L35 10L35 9L36 9L36 6L37 6L37 9L38 9L38 10L37 10L37 14L39 14L39 13L40 13L40 15L41 15L41 16L42 16L42 14L43 14L43 12L44 12L44 11L46 11L46 10L47 10L47 9L45 9L45 8L44 8L44 10L43 10L43 9L42 9L42 8L43 8L43 7L42 7L42 5L41 5L41 7L42 7L42 8L41 8L41 9L40 9L40 6L39 6L39 5L38 5L38 6L37 6L37 5L35 5L35 8L33 8L33 9L32 9L32 6L33 6L33 7L34 7L34 6L33 6L33 5L32 5L32 4L33 4L33 2L35 2L35 1L33 1L33 2L32 2L32 1L31 1L31 5L32 5L32 6L31 6L31 7L30 7L30 6L29 6L29 8L31 8L31 9L28 9L28 10L30 10L30 11L29 11L29 12L27 12L27 9L26 9L26 10L25 10L25 11L24 11L24 10L23 10L23 8L24 8L24 6L23 6L23 8L22 8L22 10L21 10L21 9L20 9L20 10L21 10L21 11L20 11L20 12L19 12L19 9L18 9L18 8L21 8L21 7L22 7L22 5L24 5L24 3L25 3L25 2L27 2L27 1ZM40 1L40 2L41 2L41 3L43 3L43 2L41 2L41 1ZM8 2L8 3L9 3L9 2ZM25 5L25 8L28 8L28 5ZM16 6L16 7L17 7L17 6ZM18 6L18 7L19 7L19 6ZM20 6L20 7L21 7L21 6ZM26 6L26 7L27 7L27 6ZM38 6L38 7L39 7L39 6ZM16 8L16 10L17 10L17 11L16 11L16 12L17 12L17 13L18 13L18 14L15 14L15 12L14 12L14 13L13 13L13 14L14 14L14 15L16 15L16 16L14 16L14 17L15 17L15 18L14 18L14 19L12 19L12 18L13 18L13 17L12 17L12 18L9 18L9 17L8 17L8 19L10 19L10 20L11 20L11 21L12 21L12 20L13 20L13 24L11 24L11 25L12 25L12 26L11 26L11 27L12 27L12 29L11 29L11 30L12 30L12 29L13 29L13 30L14 30L14 31L15 31L15 32L14 32L14 33L15 33L15 36L14 36L14 35L13 35L13 34L12 34L12 36L11 36L11 33L10 33L10 34L9 34L9 36L10 36L10 37L12 37L12 39L13 39L13 43L12 43L12 44L11 44L11 43L10 43L10 44L11 44L11 46L13 46L13 45L14 45L14 46L15 46L15 45L14 45L14 44L15 44L15 43L14 43L14 40L16 40L16 42L17 42L17 43L16 43L16 45L17 45L17 43L18 43L18 42L17 42L17 40L16 40L16 39L14 39L14 38L15 38L15 36L16 36L16 35L17 35L17 36L18 36L18 37L17 37L17 38L18 38L18 39L19 39L19 34L18 34L18 32L20 32L20 34L21 34L21 32L20 32L20 31L21 31L21 30L22 30L22 31L23 31L23 30L24 30L24 31L25 31L25 32L24 32L24 34L27 34L27 35L25 35L25 37L23 37L23 38L25 38L25 37L27 37L27 38L30 38L30 37L31 37L31 35L30 35L30 37L29 37L29 36L28 36L28 37L27 37L27 35L28 35L28 31L29 31L29 30L28 30L28 29L31 29L31 30L32 30L32 31L33 31L33 29L35 29L35 31L34 31L34 32L35 32L35 31L36 31L36 33L37 33L37 31L39 31L39 30L36 30L36 29L43 29L43 28L40 28L40 27L43 27L43 26L41 26L41 24L43 24L43 22L44 22L44 21L43 21L43 22L42 22L42 23L40 23L40 25L39 25L39 24L38 24L38 23L39 23L39 22L38 22L38 23L36 23L36 25L35 25L35 26L34 26L34 27L33 27L33 24L35 24L35 23L33 23L33 20L34 20L34 21L35 21L35 22L36 22L36 21L37 21L37 19L36 19L36 20L35 20L35 18L34 18L34 17L35 17L35 15L34 15L34 16L30 16L30 17L33 17L33 18L31 18L31 19L32 19L32 21L31 21L31 20L30 20L30 19L29 19L29 18L28 18L28 17L29 17L29 16L26 16L26 17L25 17L25 16L24 16L24 14L25 14L25 13L26 13L26 14L27 14L27 15L29 15L29 13L31 13L31 14L32 14L32 15L33 15L33 12L34 12L34 11L35 11L35 10L34 10L34 9L33 9L33 10L32 10L32 9L31 9L31 11L30 11L30 12L29 12L29 13L28 13L28 14L27 14L27 13L26 13L26 11L25 11L25 12L24 12L24 11L22 11L22 13L21 13L21 12L20 12L20 13L21 13L21 14L22 14L22 15L23 15L23 16L22 16L22 17L23 17L23 18L24 18L24 19L23 19L23 20L22 20L22 21L21 21L21 19L22 19L22 18L21 18L21 16L20 16L20 14L19 14L19 12L17 12L17 11L18 11L18 10L17 10L17 8ZM41 9L41 10L42 10L42 11L40 11L40 10L39 10L39 11L38 11L38 12L39 12L39 11L40 11L40 13L41 13L41 12L43 12L43 10L42 10L42 9ZM1 10L1 11L2 11L2 10ZM33 10L33 11L32 11L32 12L33 12L33 11L34 11L34 10ZM4 11L4 12L5 12L5 11ZM6 12L6 13L7 13L7 12ZM47 12L47 13L50 13L50 14L52 14L52 15L53 15L53 14L52 14L52 13L51 13L51 12ZM0 13L0 15L1 15L1 13ZM9 13L9 14L10 14L10 13ZM22 13L22 14L24 14L24 13ZM18 14L18 15L19 15L19 14ZM6 15L6 16L7 16L7 15ZM37 15L37 16L38 16L38 15ZM18 16L18 18L19 18L19 19L16 19L16 20L15 20L15 19L14 19L14 20L15 20L15 21L14 21L14 23L15 23L15 22L17 22L17 26L16 26L16 24L14 24L14 26L15 26L15 27L14 27L14 28L15 28L15 31L16 31L16 30L17 30L17 28L16 28L16 27L17 27L17 26L19 26L19 25L18 25L18 24L19 24L19 23L20 23L20 24L21 24L21 21L19 21L19 23L18 23L18 21L17 21L17 20L20 20L20 19L21 19L21 18L20 18L20 16ZM16 17L16 18L17 18L17 17ZM39 17L39 20L38 20L38 21L42 21L42 19L43 19L43 20L44 20L44 17L43 17L43 18L42 18L42 19L41 19L41 18L40 18L40 17ZM6 18L6 19L7 19L7 18ZM26 18L26 19L24 19L24 20L23 20L23 21L22 21L22 23L23 23L23 24L22 24L22 26L21 26L21 25L20 25L20 26L21 26L21 27L20 27L20 28L21 28L21 27L23 27L23 29L22 29L22 30L23 30L23 29L24 29L24 27L23 27L23 26L24 26L24 24L25 24L25 23L26 23L26 24L27 24L27 23L26 23L26 22L28 22L28 21L29 21L29 25L30 25L30 26L29 26L29 27L31 27L31 29L32 29L32 25L31 25L31 23L32 23L32 24L33 24L33 23L32 23L32 22L31 22L31 21L29 21L29 19L28 19L28 18ZM33 18L33 19L34 19L34 18ZM40 19L40 20L41 20L41 19ZM24 20L24 21L25 21L25 20ZM26 20L26 21L28 21L28 20ZM46 22L46 23L47 23L47 22ZM5 25L5 28L8 28L8 25ZM25 25L25 28L28 28L28 25ZM36 25L36 26L35 26L35 27L36 27L36 26L37 26L37 25ZM38 25L38 27L37 27L37 28L39 28L39 27L40 27L40 26L39 26L39 25ZM45 25L45 28L48 28L48 25ZM6 26L6 27L7 27L7 26ZM12 26L12 27L13 27L13 26ZM26 26L26 27L27 27L27 26ZM46 26L46 27L47 27L47 26ZM18 27L18 28L19 28L19 27ZM3 29L3 31L2 31L2 32L1 32L1 33L2 33L2 32L4 32L4 30L5 30L5 29ZM19 29L19 30L18 30L18 31L19 31L19 30L21 30L21 29ZM25 29L25 31L26 31L26 29ZM27 30L27 31L28 31L28 30ZM40 30L40 33L39 33L39 32L38 32L38 33L39 33L39 34L40 34L40 35L41 35L41 34L40 34L40 33L41 33L41 32L42 32L42 31L41 31L41 30ZM8 32L8 33L7 33L7 34L8 34L8 33L9 33L9 32ZM22 32L22 33L23 33L23 32ZM16 33L16 34L17 34L17 33ZM42 34L42 36L43 36L43 34ZM45 34L45 35L47 35L47 36L48 36L48 37L49 37L49 36L48 36L48 34ZM44 36L44 38L45 38L45 36ZM6 37L6 38L7 38L7 37ZM13 37L13 38L14 38L14 37ZM10 39L10 41L11 41L11 42L12 42L12 40L11 40L11 39ZM5 40L5 41L7 41L7 40ZM48 40L48 41L49 41L49 40ZM20 41L20 42L21 42L21 41ZM38 41L38 43L37 43L37 42L35 42L35 43L34 43L34 44L35 44L35 45L36 45L36 46L37 46L37 47L38 47L38 48L39 48L39 49L38 49L38 51L36 51L36 50L35 50L35 52L39 52L39 51L40 51L40 52L41 52L41 50L39 50L39 49L40 49L40 47L38 47L38 46L41 46L41 49L42 49L42 51L43 51L43 50L44 50L44 49L43 49L43 48L44 48L44 47L42 47L42 46L44 46L44 44L43 44L43 45L42 45L42 46L41 46L41 45L39 45L39 44L38 44L38 43L40 43L40 44L42 44L42 43L40 43L40 42L39 42L39 41ZM41 41L41 42L43 42L43 43L44 43L44 42L43 42L43 41ZM45 42L45 44L46 44L46 42ZM13 43L13 44L12 44L12 45L13 45L13 44L14 44L14 43ZM20 43L20 44L21 44L21 43ZM36 43L36 45L37 45L37 43ZM25 45L25 48L28 48L28 45ZM45 45L45 48L48 48L48 45ZM50 45L50 46L52 46L52 45ZM26 46L26 47L27 47L27 46ZM46 46L46 47L47 47L47 46ZM49 47L49 48L51 48L51 49L48 49L48 50L51 50L51 49L52 49L52 48L51 48L51 47ZM22 48L22 49L23 49L23 48ZM29 48L29 49L28 49L28 50L29 50L29 52L30 52L30 50L31 50L31 48ZM10 49L10 51L11 51L11 49ZM16 49L16 50L17 50L17 49ZM25 49L25 51L26 51L26 50L27 50L27 49ZM0 0L0 7L7 7L7 0ZM1 1L1 6L6 6L6 1ZM2 2L2 5L5 5L5 2ZM46 0L46 7L53 7L53 0ZM47 1L47 6L52 6L52 1ZM48 2L48 5L51 5L51 2ZM0 46L0 53L7 53L7 46ZM1 47L1 52L6 52L6 47ZM2 48L2 51L5 51L5 48Z" fill="#000000"/></g></g></svg>
